<?xml version="1.0" standalone="no"?>
<svg xmlns:xlink="http://www.w3.org/1999/xlink" id="wave" style="transform:rotate(0deg); transition: 0.3s" viewBox="0 0 1440 250" version="1.1" xmlns="http://www.w3.org/2000/svg"><defs><linearGradient id="sw-gradient-0" x1="0" x2="0" y1="1" y2="0"><stop stop-color="rgba(0, 106, 148, 1)" offset="0%"/><stop stop-color="rgba(62, 189, 200, 1)" offset="100%"/></linearGradient></defs><path style="transform:translate(0, 0px); opacity:1" fill="url(#sw-gradient-0)" d="M0,225L26.7,204.2C53.3,183,107,142,160,104.2C213.3,67,267,33,320,33.3C373.3,33,427,67,480,83.3C533.3,100,587,100,640,108.3C693.3,117,747,133,800,154.2C853.3,175,907,200,960,187.5C1013.3,175,1067,125,1120,116.7C1173.3,108,1227,142,1280,133.3C1333.3,125,1387,75,1440,54.2C1493.3,33,1547,42,1600,70.8C1653.3,100,1707,150,1760,141.7C1813.3,133,1867,67,1920,66.7C1973.3,67,2027,133,2080,141.7C2133.3,150,2187,100,2240,95.8C2293.3,92,2347,133,2400,145.8C2453.3,158,2507,142,2560,141.7C2613.3,142,2667,158,2720,141.7C2773.3,125,2827,75,2880,66.7C2933.3,58,2987,92,3040,108.3C3093.3,125,3147,125,3200,116.7C3253.3,108,3307,92,3360,79.2C3413.3,67,3467,58,3520,54.2C3573.3,50,3627,50,3680,79.2C3733.3,108,3787,167,3813,195.8L3840,225L3840,250L3813.3,250C3786.7,250,3733,250,3680,250C3626.7,250,3573,250,3520,250C3466.7,250,3413,250,3360,250C3306.7,250,3253,250,3200,250C3146.7,250,3093,250,3040,250C2986.7,250,2933,250,2880,250C2826.7,250,2773,250,2720,250C2666.7,250,2613,250,2560,250C2506.7,250,2453,250,2400,250C2346.7,250,2293,250,2240,250C2186.7,250,2133,250,2080,250C2026.7,250,1973,250,1920,250C1866.7,250,1813,250,1760,250C1706.7,250,1653,250,1600,250C1546.7,250,1493,250,1440,250C1386.7,250,1333,250,1280,250C1226.7,250,1173,250,1120,250C1066.7,250,1013,250,960,250C906.7,250,853,250,800,250C746.7,250,693,250,640,250C586.7,250,533,250,480,250C426.7,250,373,250,320,250C266.7,250,213,250,160,250C106.7,250,53,250,27,250L0,250Z"/><defs><linearGradient id="sw-gradient-1" x1="0" x2="0" y1="1" y2="0"><stop stop-color="rgba(41, 153, 188, 1)" offset="0%"/><stop stop-color="rgba(1, 191, 255, 1)" offset="100%"/></linearGradient></defs><path style="transform:translate(0, 50px); opacity:0.9" fill="url(#sw-gradient-1)" d="M0,0L26.7,12.5C53.3,25,107,50,160,75C213.3,100,267,125,320,145.8C373.3,167,427,183,480,191.7C533.3,200,587,200,640,195.8C693.3,192,747,183,800,179.2C853.3,175,907,175,960,158.3C1013.3,142,1067,108,1120,104.2C1173.3,100,1227,125,1280,125C1333.3,125,1387,100,1440,79.2C1493.3,58,1547,42,1600,62.5C1653.3,83,1707,142,1760,170.8C1813.3,200,1867,200,1920,191.7C1973.3,183,2027,167,2080,170.8C2133.3,175,2187,200,2240,208.3C2293.3,217,2347,208,2400,204.2C2453.3,200,2507,200,2560,170.8C2613.3,142,2667,83,2720,87.5C2773.3,92,2827,158,2880,170.8C2933.3,183,2987,142,3040,129.2C3093.3,117,3147,133,3200,141.7C3253.3,150,3307,150,3360,125C3413.3,100,3467,50,3520,58.3C3573.3,67,3627,133,3680,141.7C3733.3,150,3787,100,3813,75L3840,50L3840,250L3813.3,250C3786.7,250,3733,250,3680,250C3626.7,250,3573,250,3520,250C3466.7,250,3413,250,3360,250C3306.7,250,3253,250,3200,250C3146.7,250,3093,250,3040,250C2986.7,250,2933,250,2880,250C2826.7,250,2773,250,2720,250C2666.7,250,2613,250,2560,250C2506.7,250,2453,250,2400,250C2346.7,250,2293,250,2240,250C2186.7,250,2133,250,2080,250C2026.7,250,1973,250,1920,250C1866.7,250,1813,250,1760,250C1706.7,250,1653,250,1600,250C1546.7,250,1493,250,1440,250C1386.7,250,1333,250,1280,250C1226.7,250,1173,250,1120,250C1066.7,250,1013,250,960,250C906.7,250,853,250,800,250C746.7,250,693,250,640,250C586.7,250,533,250,480,250C426.7,250,373,250,320,250C266.7,250,213,250,160,250C106.7,250,53,250,27,250L0,250Z"/><defs><linearGradient id="sw-gradient-2" x1="0" x2="0" y1="1" y2="0"><stop stop-color="rgba(131, 222, 241, 1)" offset="0%"/><stop stop-color="rgba(105, 209, 203, 1)" offset="100%"/></linearGradient></defs><path style="transform:translate(0, 100px); opacity:0.8" fill="url(#sw-gradient-2)" d="M0,50L26.7,70.8C53.3,92,107,133,160,137.5C213.3,142,267,108,320,95.8C373.3,83,427,92,480,95.8C533.3,100,587,100,640,112.5C693.3,125,747,150,800,133.3C853.3,117,907,58,960,62.5C1013.3,67,1067,133,1120,137.5C1173.3,142,1227,83,1280,83.3C1333.3,83,1387,142,1440,158.3C1493.3,175,1547,150,1600,116.7C1653.3,83,1707,42,1760,25C1813.3,8,1867,17,1920,37.5C1973.3,58,2027,92,2080,95.8C2133.3,100,2187,75,2240,83.3C2293.3,92,2347,133,2400,141.7C2453.3,150,2507,125,2560,108.3C2613.3,92,2667,83,2720,87.5C2773.3,92,2827,108,2880,112.5C2933.3,117,2987,108,3040,100C3093.3,92,3147,83,3200,70.8C3253.3,58,3307,42,3360,41.7C3413.3,42,3467,58,3520,62.5C3573.3,67,3627,58,3680,45.8C3733.3,33,3787,17,3813,8.3L3840,0L3840,250L3813.3,250C3786.7,250,3733,250,3680,250C3626.7,250,3573,250,3520,250C3466.7,250,3413,250,3360,250C3306.7,250,3253,250,3200,250C3146.7,250,3093,250,3040,250C2986.7,250,2933,250,2880,250C2826.7,250,2773,250,2720,250C2666.7,250,2613,250,2560,250C2506.7,250,2453,250,2400,250C2346.7,250,2293,250,2240,250C2186.7,250,2133,250,2080,250C2026.7,250,1973,250,1920,250C1866.7,250,1813,250,1760,250C1706.7,250,1653,250,1600,250C1546.7,250,1493,250,1440,250C1386.7,250,1333,250,1280,250C1226.7,250,1173,250,1120,250C1066.7,250,1013,250,960,250C906.7,250,853,250,800,250C746.7,250,693,250,640,250C586.7,250,533,250,480,250C426.7,250,373,250,320,250C266.7,250,213,250,160,250C106.7,250,53,250,27,250L0,250Z"/></svg>